<svg version="1.2" xmlns="http://www.w3.org/2000/svg" viewBox="0 0 448 512" width="448" height="512">
	<title>bars-svg</title>
	<style>
		.s0 { fill: #ffffff } 
	</style>
	<path id="Layer" class="s0" d="m0 116v-40c0-8.8 7.2-16 16-16h416c8.8 0 16 7.2 16 16v40c0 8.8-7.2 16-16 16h-416c-8.8 0-16-7.2-16-16zm0 160v-40c0-8.8 7.2-16 16-16h416c8.8 0 16 7.2 16 16v40c0 8.8-7.2 16-16 16h-416c-8.8 0-16-7.2-16-16zm0 160v-40c0-8.8 7.2-16 16-16h416c8.8 0 16 7.2 16 16v40c0 8.8-7.2 16-16 16h-416c-8.8 0-16-7.2-16-16z"/>
</svg>