<svg version="1.2" xmlns="http://www.w3.org/2000/svg" viewBox="0 0 352 512" width="352" height="512">
	<title>times-dark-svg</title>
	<style>
		.s0 { fill: #ffffff } 
	</style>
	<path id="Layer" class="s0" d="m342.8 356.1c12.3 12.3 12.3 32.2 0 44.4l-22.3 22.3c-12.2 12.3-32.2 12.3-44.4 0l-100.1-100.1-100.1 100.1c-12.3 12.3-32.2 12.3-44.5 0l-22.2-22.3c-12.3-12.2-12.3-32.2 0-44.4l100.1-100.1-100.1-100.1c-12.3-12.3-12.3-32.2 0-44.5l22.2-22.2c12.3-12.3 32.2-12.3 44.5 0l100.1 100.1 100.1-100.1c12.3-12.3 32.2-12.3 44.4 0l22.3 22.2c12.3 12.3 12.3 32.2 0 44.5l-100.1 100.1z"/>
</svg>